<?xml version="1.0" encoding="UTF-8" standalone="no"?>
<svg width="165px" height="122px" viewBox="0 0 165 122" version="1.1" xmlns="http://www.w3.org/2000/svg" xmlns:xlink="http://www.w3.org/1999/xlink">
    <!-- Generator: Sketch 39.1 (31720) - http://www.bohemiancoding.com/sketch -->
    <title>Page 1</title>
    <desc>Created with Sketch.</desc>
    <defs>
        <polygon id="path-1" points="0.150461783 109.740636 112.673806 109.740636 112.673806 0.00469816139 0.150461783 0.00469816139"></polygon>
        <polygon id="path-3" points="0 0.217272434 0 23.0713733 164.99993 23.0713733 164.99993 0.217272434"></polygon>
    </defs>
    <g id="landing-page" stroke="none" stroke-width="1" fill="none" fill-rule="evenodd">
        <g id="@1440px---12-Columns-/-20px-Gutters-/-5%-Margins-Copy-7" transform="translate(-636.000000, -972.000000)">
            <g id="Group-7" transform="translate(1.000000, 413.000000)">
                <g id="Group-6" transform="translate(0.000000, 166.000000)">
                    <g id="Group-4" transform="translate(511.000000, 393.000000)">
                        <g id="Page-1" transform="translate(124.000000, 0.000000)">
                            <path d="M82.5,82.5260448 C60.5592038,82.5260448 39.9254459,80.2383207 24.3993312,76.0836033 C8.66512739,71.8734897 0,66.1848578 0,60.0649766 L1.05095541,60.0649766 C1.05095541,65.582862 9.66003185,71.0509609 24.6711783,75.0675383 C40.1107643,79.1991154 60.6481847,81.4742176 82.5,81.4742176 C104.117102,81.4742176 124.497229,79.2408379 139.885669,75.1853429 C154.842166,71.2434453 163.609236,65.8524804 163.939236,60.3948998 L164.988089,60.4587106 C164.24051,72.8331067 128.00742,82.5260448 82.5,82.5260448" id="Fill-1" fill="#FEFEFE"></path>
                            <path d="M28.3675987,118.975713 C27.8400191,118.447696 27.4003694,117.823962 27.0616115,117.121342 L28.008172,116.663797 C28.2957834,117.259832 28.6667707,117.787499 29.1106242,118.232071 L28.3675987,118.975713 Z" id="Fill-3" fill="#FEFEFE"></path>
                            <path d="M134.799395,1.4838126 L134.590605,0.453021965 C136.073854,0.152199393 137.453057,3.50609059e-05 138.690732,3.50609059e-05 L138.692834,3.50609059e-05 L138.887261,0.00108688808 L138.872898,1.05291407 L138.692834,1.05186224 L138.690732,1.05186224 C137.522771,1.05186224 136.213981,1.19701439 134.799395,1.4838126 L134.799395,1.4838126 Z M126.886752,4.05132274 L126.47828,3.0822393 C127.859586,2.49917643 129.200255,1.99149452 130.461401,1.5728673 L130.792102,2.5714019 C129.556529,2.98126389 128.242834,3.47912875 126.886752,4.05132274 L126.886752,4.05132274 Z M119.353854,7.72991299 L118.849745,6.80710994 C120.132261,6.10554122 121.398662,5.4470974 122.614618,4.85036079 L123.077389,5.79455098 C121.875446,6.38462603 120.622707,7.03570705 119.353854,7.72991299 L119.353854,7.72991299 Z M112.126433,12.0189136 L111.562771,11.1315221 C112.779427,10.3573773 113.99258,9.60987876 115.169299,8.90971247 L115.706338,9.81393324 C114.538726,10.5084898 113.334331,11.2503786 112.126433,12.0189136 L112.126433,12.0189136 Z M105.146338,16.7181268 L104.539586,15.8598359 C105.705096,15.0338009 106.876561,14.2242446 108.021051,13.4525541 L108.607834,14.3248694 C107.47,15.092002 106.305541,15.897351 105.146338,16.7181268 L105.146338,16.7181268 Z M98.3788854,21.7265772 L97.7378025,20.8931795 C98.8647771,20.0247209 100.000159,19.1664299 101.113121,18.3424986 L101.738089,19.1885183 C100.630732,20.0078916 99.5006051,20.8619753 98.3788854,21.7265772 L98.3788854,21.7265772 Z M91.7992038,26.9853625 L91.1293949,26.175105 C92.2241401,25.2687806 93.3279936,24.3708708 94.4101274,23.5059182 L95.0662739,24.3273952 C93.9883439,25.1891923 92.8890446,26.0832454 91.7992038,26.9853625 L91.7992038,26.9853625 Z M85.3943312,32.4590711 L84.6996497,31.6698502 C85.7674204,30.7284648 86.8421975,29.7954941 87.8931529,28.8972337 L88.5755732,29.6973236 C87.5284713,30.5920779 86.4582484,31.5211919 85.3943312,32.4590711 L85.3943312,32.4590711 Z M79.1558599,38.1224593 L78.438758,37.3539242 C79.4627389,36.3971121 80.5087898,35.4332878 81.548535,34.4890976 L82.2547771,35.2681509 C81.2188854,36.208835 80.1763376,37.1691532 79.1558599,38.1224593 L79.1558599,38.1224593 Z M73.0788854,43.9608013 L72.3407643,43.2119004 C73.3395223,42.2256371 74.3585987,41.2330629 75.3692675,40.2622264 L76.0975796,41.0209444 C75.0900637,41.9886254 74.0741401,42.9776935 73.0788854,43.9608013 L73.0788854,43.9608013 Z M67.1634076,49.961826 L66.4053185,49.2332604 C67.3714968,48.2256099 68.3632484,47.2060388 69.3532484,46.202245 L70.100828,46.9413289 C69.1150318,47.941266 68.1267834,48.9576816 67.1634076,49.961826 L67.1634076,49.961826 Z M61.4150318,56.1241308 L60.6369745,55.4173029 C61.5688217,54.3893172 62.5318471,53.3423985 63.4990764,52.3049463 L64.2673248,53.0226431 C63.3032484,54.0562386 62.3437261,55.0996511 61.4150318,56.1241308 L61.4150318,56.1241308 Z M55.8484713,62.4498195 L55.0493949,61.7664824 C55.9441083,60.7181613 56.8759554,59.6428433 57.8190127,58.5710314 L58.6079299,59.2662892 C57.6683758,60.3338938 56.7400318,61.4053551 55.8484713,62.4498195 L55.8484713,62.4498195 Z M50.482293,68.9459041 L49.6611465,68.2892133 C50.5271338,67.2040783 51.4246497,66.0989585 52.328121,65.0054089 L53.1384076,65.6757734 C52.2380892,66.7651158 51.3444268,67.865327 50.482293,68.9459041 L50.482293,68.9459041 Z M45.3469745,75.6222018 L44.5020064,74.996014 C45.3270064,73.8810772 46.1842357,72.7447533 47.0509236,71.618597 L47.8836306,72.2602115 C47.0211465,73.3811087 46.1674204,74.5121735 45.3469745,75.6222018 L45.3469745,75.6222018 Z M40.4870064,82.4976455 L39.615414,81.9100247 C40.3847134,80.7670391 41.193949,79.5953037 42.0203503,78.4263731 L42.8782803,79.033628 C42.0564331,80.195897 41.2517516,81.3616721 40.4870064,82.4976455 L40.4870064,82.4976455 Z M35.978758,89.6006344 L35.0756369,89.0631507 C35.7759236,87.8837018 36.5228025,86.6695427 37.2956051,85.4536304 L38.1822611,86.0177604 C37.415414,87.2249074 36.6737898,88.430652 35.978758,89.6006344 L35.978758,89.6006344 Z M31.9609554,96.977449 L31.0175478,96.5135932 C31.6148408,95.2962786 32.2727389,94.0288268 32.9733758,92.7459483 L33.8957643,93.2508253 C33.2021338,94.5196795 32.5515924,95.7734575 31.9609554,96.977449 L31.9609554,96.977449 Z M28.7380255,104.69786 L27.7406688,104.366535 C28.16,103.102239 28.6676115,101.761159 29.2498408,100.380811 L30.218121,100.789621 C29.6464013,102.144725 29.1485987,103.45986 28.7380255,104.69786 L28.7380255,104.69786 Z M26.1638854,112.796579 L26.1628344,112.623378 C26.1628344,111.378015 26.3162739,109.990304 26.6192994,108.498112 L27.6492357,108.707776 C27.3602229,110.130898 27.2137898,111.448137 27.2137898,112.623378 L27.2148408,112.783607 L26.1638854,112.796579 Z" id="Fill-5" fill="#FEFEFE"></path>
                            <path d="M144.296984,2.95012981 C143.853131,2.50590813 143.326252,2.13461313 142.73001,1.8467631 L143.187175,0.899417419 C143.889564,1.23880699 144.51278,1.67847075 145.04001,2.20648799 L144.296984,2.95012981 Z" id="Fill-7" fill="#FEFEFE"></path>
                            <path d="M145.040045,118.975713 L144.297019,118.232071 C148.195363,114.330494 145.970841,104.371443 138.194471,90.9080556 C130.196,77.0600496 117.281159,60.9169567 101.829662,45.4526429 C86.3781656,29.9883291 70.2484522,17.0631261 56.4119236,9.05766949 C42.9596943,1.2748496 33.0085478,-0.951167317 29.1105541,2.95005968 L28.3675287,2.20641787 C32.6911592,-2.12114975 42.8374331,-0.0108338199 56.9377516,8.14713777 C70.8517006,16.1971218 87.0584841,29.1815777 102.572688,44.7090011 C118.087242,60.2360739 131.061287,76.4566514 139.104599,90.3817914 C147.255459,104.493806 149.363675,114.648847 145.040045,118.975713" id="Fill-9" fill="#FEFEFE"></path>
                            <path d="M112.267927,50.6685487 L120.746334,65.4183212 C121.521239,66.7667636 122.957194,67.5980577 124.511557,67.5980577 L133.263213,67.5980577 C133.735092,64.8878497 133.983118,62.1008583 133.983118,59.2556657 C133.983118,47.4257655 129.72885,36.5922962 122.671334,28.1973129 L112.266175,46.3360725 C111.496525,47.6775028 111.497226,49.327469 112.267927,50.6685487" id="Fill-11" fill="#B4D455"></path>
                            <path d="M70.6231529,82.9905317 L65.7943631,74.620091 C64.8393949,72.964515 65.1480255,70.8685741 66.5394904,69.5590492 L73.8471338,62.6815019 C75.238949,61.3716265 75.5472293,59.2756855 74.5919108,57.6197589 L69.1399045,48.171546 C68.404586,46.8970821 67.0457006,46.1120684 65.575414,46.1120684 L52.3025478,46.1120684 C50.8357643,46.1120684 49.4796815,45.3309114 48.7429618,44.061356 L43.7659873,35.484056 C39.7909236,42.5014963 37.5191083,50.6128369 37.5191083,59.2557008 C37.5191083,77.4084848 47.5322611,93.2184991 62.3311146,101.460968 L70.6217516,87.112993 C71.3584713,85.8378278 71.3588217,84.2660474 70.6231529,82.9905317" id="Fill-13" fill="#71BDDD"></path>
                            <path d="M96.7209682,78.2667758 L77.2012229,44.3404408 C76.2371465,42.6645295 76.5538344,40.5450978 77.9652675,39.224704 L91.4616369,26.6010249 C92.8744713,25.2792287 93.1904586,23.1573427 92.2232293,21.4810808 L86.1711274,10.9894553 C86.031,10.9884035 85.8915732,10.9834949 85.7510955,10.9834949 C67.7489299,10.9834949 52.0525605,20.8555942 43.7661274,35.484056 L48.7427516,44.061356 C49.4794713,45.3309114 50.8355541,46.1120684 52.3026879,46.1120684 L65.5752038,46.1120684 C67.0458408,46.1120684 68.4043758,46.8970821 69.1396943,48.171546 L74.592051,57.6197589 C75.5473694,59.2756855 75.2390892,61.3716265 73.8472739,62.6815019 L66.5396306,69.5590492 C65.1478153,70.8685741 64.839535,72.964515 65.7945032,74.620091 L70.623293,82.9905317 C71.3589618,84.2660474 71.3582611,85.8378278 70.6215414,87.112993 L62.3309045,101.460968 C65.4795669,103.214714 68.8440255,104.627318 72.375586,105.645487 L95.9709363,83.3691895 C97.3711592,82.0473933 97.6815414,79.9363762 96.7209682,78.2667758" id="Fill-15" fill="#B4D455"></path>
                            <path d="M124.511627,67.5980577 C122.957264,67.5980577 121.521309,66.7667636 120.746404,65.4183212 L112.267997,50.6685487 C111.496946,49.327469 111.496245,47.6775028 112.265895,46.3360725 L122.671054,28.1973129 C113.907487,17.7730043 100.818889,11.1149383 86.1710223,10.9894202 L92.2234745,21.4810457 C93.1903535,23.1573076 92.8747166,25.2791937 91.4618822,26.6009898 L77.9651624,39.224669 C76.5537293,40.5450627 76.2370414,42.6644945 77.2014682,44.3404058 L96.7208631,78.2667408 C97.6814363,79.9363411 97.3710541,82.0473582 95.9708312,83.3691544 L72.3754809,105.645452 C76.622742,106.869778 81.1099713,107.527872 85.7509904,107.527872 C109.546022,107.527872 129.314494,90.2817626 133.263283,67.5980577 L124.511627,67.5980577 Z" id="Fill-17" fill="#71BDDD"></path>
                            <path d="M77.9543025,12.5970679 C76.8543025,12.5970679 75.9620414,11.7037161 75.9620414,10.6031542 C75.9620414,9.50224178 76.8543025,8.6088899 77.9543025,8.6088899 C79.0539522,8.6088899 79.9465637,9.50224178 79.9465637,10.6031542 C79.9465637,11.7037161 79.0539522,12.5970679 77.9543025,12.5970679 M77.9543025,5.01970496 C74.8700987,5.01970496 72.3754809,7.51604146 72.3754809,10.6031542 C72.3754809,14.7904782 77.9543025,20.9724172 77.9543025,20.9724172 C77.9543025,20.9724172 83.5331242,14.7904782 83.5331242,10.6031542 C83.5331242,7.51604146 81.0385064,5.01970496 77.9543025,5.01970496" id="Fill-19" fill="#FEFEFE"></path>
                            <path d="M82.0844522,69.1948716 C80.9848025,69.1948716 80.0921911,68.3015197 80.0921911,67.2009579 C80.0921911,66.1000454 80.9848025,65.2066936 82.0844522,65.2066936 C83.1844522,65.2066936 84.0767134,66.1000454 84.0767134,67.2009579 C84.0767134,68.3015197 83.1844522,69.1948716 82.0844522,69.1948716 M82.0844522,61.617158 C79.0002484,61.617158 76.5056306,64.1138451 76.5056306,67.2009579 C76.5056306,71.3882819 82.0844522,77.5698702 82.0844522,77.5698702 C82.0844522,77.5698702 87.6632739,71.3882819 87.6632739,67.2009579 C87.6632739,64.1138451 85.1686561,61.617158 82.0844522,61.617158" id="Fill-21" fill="#FEFEFE"></path>
                            <path d="M132.621815,55.8972868 C131.521815,55.8972868 130.629554,55.0039349 130.629554,53.903373 C130.629554,52.8024606 131.521815,51.9091087 132.621815,51.9091087 C133.721465,51.9091087 134.614076,52.8024606 134.614076,53.903373 C134.614076,55.0039349 133.721465,55.8972868 132.621815,55.8972868 M132.621815,48.3195732 C129.537611,48.3195732 127.042994,50.8162603 127.042994,53.903373 C127.042994,58.090697 132.621815,64.2722853 132.621815,64.2722853 C132.621815,64.2722853 138.200637,58.090697 138.200637,53.903373 C138.200637,50.8162603 135.706019,48.3195732 132.621815,48.3195732" id="Fill-23" fill="#FEFEFE"></path>
                            <path d="M34.7136879,121.172489 C31.9752484,121.172489 29.8358535,120.445677 28.3676688,118.975573 L29.1106943,118.231931 C33.0097389,122.13421 42.960535,119.907492 56.4117134,112.124321 C70.2485924,104.119215 86.3783057,91.1936617 101.829803,75.7296985 C117.281299,60.2650342 130.19614,44.1222919 138.194611,30.2739352 C145.970981,16.810898 148.195153,6.85184766 144.297159,2.95027005 L145.040185,2.20662824 C149.363465,6.53349463 147.255599,16.6885354 139.104389,30.8005501 C131.061076,44.7256901 118.087382,60.945917 102.572828,76.4733404 C87.0586242,92.0007638 70.8514904,104.98522 56.9375414,113.035204 C47.6267771,118.421961 40.0385287,121.171788 34.7136879,121.172489" id="Fill-25" fill="#FEFEFE"></path>
                            <path d="M27.6211051,5.51462471 L26.6160414,5.20714056 C26.9803726,4.01436854 27.5699586,3.00461445 28.3676338,2.20627763 L29.1106592,2.95027005 C28.4359459,3.6255431 27.9349904,4.48839199 27.6211051,5.51462471" id="Fill-27" fill="#FEFEFE"></path>
                            <path d="M143.18721,120.282608 L142.730045,119.335613 C143.325936,119.047763 143.852815,118.676468 144.297019,118.231896 L145.040045,118.975538 C144.512465,119.503555 143.889248,119.943569 143.18721,120.282608" id="Fill-29" fill="#FEFEFE"></path>
                            <g id="Group-33" transform="translate(26.273885, 11.441776)">
                                <mask id="mask-2" fill="white">
                                    <use xlink:href="#path-1"></use>
                                </mask>
                                <g id="Clip-32"></g>
                                <path d="M1.11664013,4.26775371 C0.678742038,2.81728403 0.353646497,1.43903982 0.150461783,0.171588074 L1.18845541,0.00469816139 C1.38428344,1.22622012 1.69851911,2.55818394 2.12240446,3.96377566 L1.11664013,4.26775371 Z M4.17457006,12.0425096 C3.55345541,10.7235183 2.99224522,9.43608185 2.50740446,8.21561172 L3.48374204,7.82678627 C3.9608758,9.02692108 4.51332803,10.2943728 5.12498408,11.5940806 L4.17457006,12.0425096 Z M8.05820064,19.4088059 C7.34530255,18.1753633 6.66638535,16.9506858 6.04071656,15.7680815 L6.96906051,15.2758263 C7.5891242,16.44651 8.26173567,17.6599679 8.96797771,18.8818405 L8.05820064,19.4088059 Z M12.4396338,26.4753315 C11.6678822,25.3046479 10.9139968,24.126952 10.1982962,22.9752013 L11.0905573,22.4198365 C11.8013535,23.5635233 12.5503344,24.7331551 13.3168312,25.896476 L12.4396338,26.4753315 Z M17.1727866,33.3034429 C16.3481369,32.1678202 15.5389013,31.0283408 14.7678503,29.91691 L15.6313854,29.3170179 C16.3978822,30.4221377 17.202914,31.5553062 18.0233599,32.6853192 L17.1727866,33.3034429 Z M22.1802389,39.9271493 C21.3209076,38.8325478 20.4678822,37.7263762 19.6453344,36.6391375 L20.4832962,36.0041845 C21.3019904,37.0865147 22.1508121,38.1877777 23.0066401,39.2774707 L22.1802389,39.9271493 Z M27.4157484,46.3688895 C26.5185828,45.3002331 25.6287739,44.2238633 24.7715446,43.1699325 L25.587086,42.5062295 C26.4404618,43.5559531 27.3264172,44.6277649 28.2204299,45.6918634 L27.4157484,46.3688895 Z M32.8502389,52.6412856 C31.9310032,51.6115468 31.008965,50.5628751 30.1100478,49.5254229 L30.9035191,48.8364761 C31.7996338,49.8700716 32.7181688,50.9141854 33.6342516,51.9407687 L32.8502389,52.6412856 Z M38.4626911,58.7538039 C37.5178822,57.7528151 36.5664172,56.7311403 35.6349204,55.7178801 L36.4087739,55.0054425 C37.3371178,56.0158978 38.2850796,57.0340665 39.2263854,58.0311987 L38.4626911,58.7538039 Z M44.2394427,64.7092494 C43.2708121,63.7370105 42.2923726,62.7416314 41.3310987,61.7511608 L42.0849841,61.0183879 C43.0431051,62.0053524 44.0183917,62.997576 44.9838694,63.96701 L44.2394427,64.7092494 Z M50.1727866,70.5079726 C49.1778822,69.5620294 48.1731688,68.592946 47.186672,67.6280698 L47.9205892,66.8756628 C48.9042834,67.8370328 49.9058439,68.8029608 50.8968949,69.7457486 L50.1727866,70.5079726 Z M56.2627229,76.1436627 C55.2482006,75.2310273 54.2168631,74.2899926 53.1977866,73.3472048 L53.9113854,72.574813 C54.9269586,73.5140947 55.9540924,74.451974 56.9654618,75.3618045 L56.2627229,76.1436627 Z M62.5120541,81.6029963 C61.4663535,80.716306 60.4080414,79.8061249 59.3668949,78.8969956 L60.0580732,78.1046191 C61.0950159,79.0102423 62.1491242,79.917268 63.1913217,80.8004522 L62.5120541,81.6029963 Z M68.9295382,86.8659889 C67.866672,86.0234753 66.7796338,85.1469527 65.6992516,84.2609636 L66.365207,83.4472 C67.4413854,84.329683 68.5238694,85.2023489 69.5821815,86.041707 L68.9295382,86.8659889 Z M75.5274363,91.9052929 C74.4295382,91.0992427 73.3120223,90.2616376 72.2053662,89.415618 L72.8429459,88.5794154 C73.9446975,89.421929 75.0566083,90.2549761 76.1489013,91.056819 L75.5274363,91.9052929 Z M82.3253662,96.6760304 C81.2032962,95.9264282 80.0503981,95.1361554 78.8992516,94.3280015 L79.5028503,93.4672563 C80.6473408,94.2708522 81.7935828,95.0558659 82.9089968,95.8009102 L82.3253662,96.6760304 Z M89.3583599,101.104573 C88.1963535,100.420185 87.0024682,99.6916189 85.8099841,98.9385106 L86.3701433,98.0490155 C87.5542197,98.7958128 88.7386465,99.5187686 89.8911943,100.197898 L89.3583599,101.104573 Z M96.6817675,105.056639 C95.4861306,104.476731 94.2403981,103.836169 92.9789013,103.153182 L93.4788057,102.227925 C94.7269904,102.903899 95.9583599,103.536748 97.1403344,104.110345 L96.6817675,105.056639 Z M104.397532,108.236663 C103.156704,107.831709 101.839506,107.340156 100.481672,106.774974 L100.885239,105.803787 C102.2175,106.3581 103.508774,106.840187 104.723328,107.236726 L104.397532,108.236663 Z M112.418774,109.740776 C111.219283,109.740776 109.885971,109.597377 108.456322,109.315838 L108.659506,108.283645 C110.118583,108.571845 111.465207,108.708933 112.65629,108.686845 L112.673806,109.738672 C112.589379,109.740075 112.504602,109.740776 112.418774,109.740776 L112.418774,109.740776 Z" id="Fill-31" fill="#FEFEFE" mask="url(#mask-2)"></path>
                            </g>
                            <path d="M27.2581401,7.46934034 L26.2113885,7.38028563 C26.2772484,6.60053109 26.4135223,5.8695112 26.6160064,5.20686008 L27.6210701,5.51469483 C27.4403057,6.10617231 27.3183949,6.7635643 27.2581401,7.46934034" id="Fill-34" fill="#FEFEFE"></path>
                            <g id="Group-38" transform="translate(0.000000, 37.386846)">
                                <mask id="mask-4" fill="white">
                                    <use xlink:href="#path-3"></use>
                                </mask>
                                <g id="Clip-37"></g>
                                <path d="M164.988019,23.0713733 L163.939166,23.0082637 C163.945471,22.8988737 163.948975,22.7884318 163.948975,22.6783406 C163.948975,17.1608058 155.339898,11.6927069 140.328752,7.67612956 C124.888815,3.54455241 104.351395,1.26909961 82.4999299,1.26909961 C60.648465,1.26909961 40.1110446,3.54455241 24.6711083,7.67612956 C9.65996178,11.6927069 1.05088535,17.1608058 1.05088535,22.6783406 L-7.00636938e-05,22.6783406 C-7.00636938e-05,16.5588101 8.66540764,10.8701781 24.3996115,6.6597139 C39.9257261,2.50534715 60.5591338,0.217272434 82.4999299,0.217272434 C104.440726,0.217272434 125.074134,2.50534715 140.600599,6.6597139 C156.334803,10.8701781 164.99993,16.5588101 164.99993,22.6783406 C164.99993,22.809819 164.995726,22.9405962 164.988019,23.0713733" id="Fill-36" fill="#FEFEFE" mask="url(#mask-4)"></path>
                            </g>
                        </g>
                    </g>
                </g>
            </g>
        </g>
    </g>
</svg>