<?xml version="1.0" encoding="utf-8"?>
<!-- Generator: Adobe Illustrator 19.1.0, SVG Export Plug-In . SVG Version: 6.00 Build 0)  -->
<svg version="1.1" id="Layer_1" xmlns="http://www.w3.org/2000/svg" xmlns:xlink="http://www.w3.org/1999/xlink" x="0px" y="0px"
	 viewBox="56.7 17 1435.8 836.3" style="enable-background:new 56.7 17 1435.8 836.3;" xml:space="preserve">
<style type="text/css">
	.st0{fill:#0F94A7;}
	.st1{fill:none;stroke:#0091A6;stroke-miterlimit:10;}
	.st2{fill:none;stroke:#0F94A7;stroke-width:2;stroke-miterlimit:10;}
	.st3{fill:none;stroke:#0F94A7;stroke-width:2;stroke-miterlimit:10;stroke-dasharray:7.94,7.94;}
	.st4{fill:none;stroke:#0F94A7;stroke-width:2;stroke-miterlimit:10;stroke-dasharray:7.91,7.91;}
	.st5{fill:none;stroke:#0F94A7;stroke-width:2;stroke-miterlimit:10;stroke-dasharray:8.29,8.29;}
</style>
<title>graph</title>
<g id="Layer_5">
	<rect id="_Rectangle_" x="93.5" y="599.6" class="st0" width="41.5" height="253.7"/>
	<rect id="_Rectangle_2" x="184.8" y="694.4" class="st0" width="39" height="158.9"/>
	<rect id="_Rectangle_3" x="266.1" y="621.8" class="st0" width="39" height="231.5"/>
	<rect id="_Rectangle_4" x="353.4" y="639.9" class="st0" width="39" height="213.4"/>
	<rect id="_Rectangle_5" x="443.2" y="726.9" class="st0" width="39" height="126.4"/>
	<rect id="_Rectangle_6" x="533.1" y="693.4" class="st0" width="39" height="159.9"/>
	<rect id="_Rectangle_7" x="620.2" y="617.6" class="st0" width="39" height="235.7"/>
	<rect id="_Rectangle_8" x="709.2" y="693.4" class="st0" width="39" height="159.9"/>
	<rect id="_Rectangle_9" x="796.4" y="625" class="st0" width="39" height="228.3"/>
	<rect id="_Rectangle_10" x="885.8" y="592.9" class="st0" width="39" height="260.4"/>
	<rect id="_Rectangle_11" x="975.6" y="625" class="st0" width="39" height="228.3"/>
	<rect id="_Rectangle_12" x="1064.6" y="737.6" class="st0" width="39" height="115.7"/>
	<rect id="_Rectangle_13" x="1151.6" y="697.6" class="st0" width="39" height="155.7"/>
	<rect id="_Rectangle_14" x="1241.6" y="635.7" class="st0" width="39" height="217.6"/>
	<rect id="_Rectangle_15" x="1329.6" y="733.7" class="st0" width="39" height="119.6"/>
	<rect id="_Rectangle_16" x="1418.6" y="611.2" class="st0" width="39" height="242.1"/>
</g>
<g id="Layer_3">
	<line id="_Path_" class="st1" x1="153.9" y1="848.6" x2="153.9" y2="31.9"/>
	<line id="_Path_2" class="st1" x1="242.4" y1="848.6" x2="242.4" y2="31.9"/>
	<line id="_Path_3" class="st1" x1="330.9" y1="848.6" x2="330.9" y2="31.9"/>
	<line id="_Path_4" class="st1" x1="419.3" y1="848.6" x2="419.3" y2="31.9"/>
	<line id="_Path_5" class="st1" x1="507.8" y1="848.6" x2="507.8" y2="31.9"/>
	<line id="_Path_6" class="st1" x1="596.3" y1="848.6" x2="596.3" y2="31.9"/>
	<line id="_Path_7" class="st1" x1="684.8" y1="848.6" x2="684.8" y2="31.9"/>
	<line id="_Path_8" class="st1" x1="773.3" y1="848.6" x2="773.3" y2="31.9"/>
	<line id="_Path_9" class="st1" x1="861.8" y1="848.6" x2="861.8" y2="31.9"/>
	<line id="_Path_10" class="st1" x1="950.3" y1="848.6" x2="950.3" y2="31.9"/>
	<line id="_Path_11" class="st1" x1="1038.8" y1="848.6" x2="1038.8" y2="31.9"/>
	<line id="_Path_12" class="st1" x1="1127.3" y1="848.6" x2="1127.3" y2="31.9"/>
	<line id="_Path_13" class="st1" x1="1215.8" y1="848.6" x2="1215.8" y2="31.9"/>
	<line id="_Path_14" class="st1" x1="1304.3" y1="848.6" x2="1304.3" y2="31.9"/>
	<line id="_Path_15" class="st1" x1="1392.8" y1="848.6" x2="1392.8" y2="31.9"/>
	<line id="_Path_16" class="st1" x1="1485.3" y1="836.8" x2="63.9" y2="836.8"/>
	<line id="_Path_17" class="st1" x1="1485.3" y1="748.3" x2="63.9" y2="748.3"/>
	<line id="_Path_18" class="st1" x1="1485.3" y1="659.8" x2="63.9" y2="659.8"/>
	<line id="_Path_19" class="st1" x1="1485.3" y1="571.3" x2="63.9" y2="571.3"/>
	<line id="_Path_20" class="st1" x1="1485.3" y1="482.8" x2="63.9" y2="482.8"/>
	<line id="_Path_21" class="st1" x1="1485.3" y1="394.3" x2="63.9" y2="394.3"/>
	<line id="_Path_22" class="st1" x1="1485.3" y1="305.8" x2="63.9" y2="305.8"/>
	<line id="_Path_23" class="st1" x1="1485.3" y1="217.3" x2="63.9" y2="217.3"/>
	<line id="_Path_24" class="st1" x1="1485.3" y1="128.9" x2="63.9" y2="128.9"/>
	<polyline id="_Path_25" class="st2" points="65.4,398 242.4,571.3 421.3,482.8 597.4,571.3 774.8,394.3 950.3,482.8 1128.8,571.3 
		1304.3,394.3 1482.8,571.3 	"/>
	<g id="_Group_">
		<line class="st2" x1="65.4" y1="571.3" x2="68.9" y2="569.5"/>
		<polyline class="st3" points="76,566 242.4,482.8 414.2,399.1 		"/>
		<polyline class="st2" points="417.8,397.4 421.3,395.6 424.9,397.4 		"/>
		<polyline class="st4" points="432,400.9 597.4,482.8 767.7,569.4 		"/>
		<polyline class="st2" points="771.2,571.2 774.8,573 778.3,571.2 		"/>
		<polyline class="st3" points="785.4,567.5 950.3,482.8 1121.6,396.6 		"/>
		<polyline class="st2" points="1125.2,394.8 1128.8,393 1131.6,395.8 		"/>
		<line class="st4" x1="1137.1" y1="401.5" x2="1301.2" y2="567.3"/>
		<polyline class="st2" points="1303.9,570.2 1306.8,573 1310.3,571.2 		"/>
		<line class="st5" x1="1317.7" y1="567.4" x2="1476.5" y2="486.5"/>
		<line class="st2" x1="1480.2" y1="484.6" x2="1483.8" y2="482.8"/>
	</g>
	<circle id="_Path_26" class="st0" cx="242.4" cy="571.3" r="8.7"/>
	<circle id="_Path_27" class="st0" cx="242.4" cy="482.8" r="8.7"/>
	<circle id="_Path_28" class="st0" cx="421.3" cy="482.8" r="8.7"/>
	<circle id="_Path_29" class="st0" cx="421.3" cy="395.6" r="8.7"/>
	<circle id="_Path_30" class="st0" cx="597.4" cy="571.3" r="8.7"/>
	<circle id="_Path_31" class="st0" cx="597.4" cy="482.8" r="8.7"/>
	<circle id="_Path_32" class="st0" cx="774.8" cy="394.3" r="8.7"/>
	<circle id="_Path_33" class="st0" cx="774.8" cy="573" r="8.7"/>
	<circle id="_Path_34" class="st0" cx="950.3" cy="482.8" r="8.7"/>
	<circle id="_Path_35" class="st0" cx="1128.8" cy="571.3" r="8.7"/>
	<circle id="_Path_36" class="st0" cx="1128.8" cy="394.3" r="8.7"/>
	<circle id="_Path_37" class="st0" cx="1304.3" cy="571.3" r="8.7"/>
	<circle id="_Path_38" class="st0" cx="1483.8" cy="482.8" r="8.7"/>
	<circle id="_Path_39" class="st0" cx="1304.3" cy="394.3" r="8.7"/>
	<circle id="_Path_40" class="st0" cx="1482.8" cy="571.3" r="8.7"/>
	<circle id="_Path_41" class="st0" cx="65.4" cy="397.3" r="8.7"/>
	<circle id="_Path_42" class="st0" cx="65.4" cy="573" r="8.7"/>
</g>
</svg>
