<?xml version="1.0" encoding="UTF-8" standalone="no"?>
<svg width="128px" height="123px" viewBox="0 0 128 123" version="1.1" xmlns="http://www.w3.org/2000/svg" xmlns:xlink="http://www.w3.org/1999/xlink">
    <!-- Generator: Sketch 39.1 (31720) - http://www.bohemiancoding.com/sketch -->
    <title>Page 1</title>
    <desc>Created with Sketch.</desc>
    <defs>
        <polygon id="path-1" points="8.832 0.0616952381 0.171058104 0.0616952381 0.171058104 8.70129333 8.832 8.70129333 8.832 0.0616952381"></polygon>
    </defs>
    <g id="landing-page" stroke="none" stroke-width="1" fill="none" fill-rule="evenodd">
        <g id="@1440px---12-Columns-/-20px-Gutters-/-5%-Margins-Copy-7" transform="translate(-1093.000000, -972.000000)">
            <g id="Group-7" transform="translate(1.000000, 413.000000)">
                <g id="Group-6" transform="translate(0.000000, 166.000000)">
                    <g id="Group-5" transform="translate(950.000000, 393.000000)">
                        <g id="Page-1" transform="translate(142.000000, 0.000000)">
                            <polygon id="Fill-1" fill="#71BDDD" points="0 122.938305 18.7889908 122.938305 18.7889908 86.1515429 0 86.1515429"></polygon>
                            <polygon id="Fill-2" fill="#B4D455" points="27.3027523 122.938305 46.0917431 122.938305 46.0917431 66.6246095 27.3027523 66.6246095"></polygon>
                            <polygon id="Fill-3" fill="#71BDDD" points="54.6055046 122.938305 73.3944954 122.938305 73.3944954 46.3350762 54.6055046 46.3350762"></polygon>
                            <polygon id="Fill-4" fill="#B4D455" points="81.9082569 122.938305 100.697248 122.938305 100.697248 86.1515429 81.9082569 86.1515429"></polygon>
                            <polygon id="Fill-5" fill="#71BDDD" points="109.211009 122.938305 128 122.938305 128 25.0119524 109.211009 25.0119524"></polygon>
                            <g id="Group-53" transform="translate(3.914373, 0.328781)">
                                <path d="M5.08868502,63.8675743 C3.02463609,63.8675743 1.34537003,65.5427171 1.34537003,67.6016981 C1.34537003,69.660679 3.02463609,71.3358219 5.08868502,71.3358219 C7.15273394,71.3358219 8.832,69.660679 8.832,67.6016981 C8.832,65.5427171 7.15273394,63.8675743 5.08868502,63.8675743 M5.08868502,72.5072505 C2.37680734,72.5072505 0.171058104,70.3065267 0.171058104,67.6016981 C0.171058104,64.8968695 2.37680734,62.6961457 5.08868502,62.6961457 C7.80056269,62.6961457 10.0063119,64.8968695 10.0063119,67.6016981 C10.0063119,70.3065267 7.80056269,72.5072505 5.08868502,72.5072505" id="Fill-6" fill="#FEFEFE"></path>
                                <path d="M9.41915596,29.0031657 C9.41915596,31.3889752 7.48036697,33.3230038 5.08868502,33.3230038 C2.69700306,33.3230038 0.758214067,31.3889752 0.758214067,29.0031657 C0.758214067,26.6173562 2.69700306,24.6833276 5.08868502,24.6833276 C7.48036697,24.6833276 9.41915596,26.6173562 9.41915596,29.0031657" id="Fill-8" fill="#B4D455"></path>
                                <path d="M37.6026422,48.33736 C37.6026422,50.7231695 35.6638532,52.6571981 33.2721713,52.6571981 C30.8804893,52.6571981 28.9417003,50.7231695 28.9417003,48.33736 C28.9417003,45.9515505 30.8804893,44.0175219 33.2721713,44.0175219 C35.6638532,44.0175219 37.6026422,45.9515505 37.6026422,48.33736" id="Fill-10" fill="#B4D455"></path>
                                <g id="Group-14" transform="translate(55.584098, 0.000000)">
                                    <mask id="mask-2" fill="white">
                                        <use xlink:href="#path-1"></use>
                                    </mask>
                                    <g id="Clip-13"></g>
                                    <path d="M8.832,4.38145524 C8.832,6.76726476 6.89321101,8.70129333 4.50152905,8.70129333 C2.10984709,8.70129333 0.171058104,6.76726476 0.171058104,4.38145524 C0.171058104,1.99564571 2.10984709,0.0616171429 4.50152905,0.0616171429 C6.89321101,0.0616171429 8.832,1.99564571 8.832,4.38145524" id="Fill-12" fill="#B4D455" mask="url(#mask-2)"></path>
                                </g>
                                <path d="M90.4466789,58.1328067 C90.4466789,60.5186162 88.5078899,62.4526448 86.116208,62.4526448 C83.724526,62.4526448 81.785737,60.5186162 81.785737,58.1328067 C81.785737,55.7469971 83.724526,53.8129686 86.116208,53.8129686 C88.5078899,53.8129686 90.4466789,55.7469971 90.4466789,58.1328067" id="Fill-15" fill="#B4D455"></path>
                                <path d="M119.829138,8.70129333 C119.829138,11.0871029 117.890349,13.0211314 115.498667,13.0211314 C113.106985,13.0211314 111.168196,11.0871029 111.168196,8.70129333 C111.168196,6.31548381 113.106985,4.38145524 115.498667,4.38145524 C117.890349,4.38145524 119.829138,6.31548381 119.829138,8.70129333" id="Fill-17" fill="#B4D455"></path>
                                <path d="M33.2721713,77.5475562 C31.2085138,77.5475562 29.5288563,79.222699 29.5288563,81.28168 C29.5288563,83.340661 31.2085138,85.0158038 33.2721713,85.0158038 C35.3362202,85.0158038 37.0154862,83.340661 37.0154862,81.28168 C37.0154862,79.222699 35.3362202,77.5475562 33.2721713,77.5475562 M33.2721713,86.1872324 C30.560685,86.1872324 28.3545443,83.9865086 28.3545443,81.28168 C28.3545443,78.5768514 30.560685,76.3761276 33.2721713,76.3761276 C35.9840489,76.3761276 38.1897982,78.5768514 38.1897982,81.28168 C38.1897982,83.9865086 35.9840489,86.1872324 33.2721713,86.1872324" id="Fill-19" fill="#FEFEFE"></path>
                                <path d="M60.0856269,56.8889448 C58.0219694,56.8889448 56.3423119,58.5640876 56.3423119,60.6230686 C56.3423119,62.6820495 58.0219694,64.3571924 60.0856269,64.3571924 C62.1496758,64.3571924 63.8289419,62.6820495 63.8289419,60.6230686 C63.8289419,58.5640876 62.1496758,56.8889448 60.0856269,56.8889448 M60.0856269,65.528621 C57.3741407,65.528621 55.168,63.3278971 55.168,60.6230686 C55.168,57.91824 57.3741407,55.7175162 60.0856269,55.7175162 C62.7975046,55.7175162 65.0032538,57.91824 65.0032538,60.6230686 C65.0032538,63.3278971 62.7975046,65.528621 60.0856269,65.528621" id="Fill-21" fill="#FEFEFE"></path>
                                <path d="M86.116208,18.5138038 C84.0525505,18.5138038 82.372893,20.1889467 82.372893,22.2479276 C82.372893,24.3069086 84.0525505,25.9820514 86.116208,25.9820514 C88.1802569,25.9820514 89.8595229,24.3069086 89.8595229,22.2479276 C89.8595229,20.1889467 88.1802569,18.5138038 86.116208,18.5138038 M86.116208,27.15348 C83.4047217,27.15348 81.198581,24.9527562 81.198581,22.2479276 C81.198581,19.543099 83.4047217,17.3423752 86.116208,17.3423752 C88.8280856,17.3423752 91.0338349,19.543099 91.0338349,22.2479276 C91.0338349,24.9527562 88.8280856,27.15348 86.116208,27.15348" id="Fill-23" fill="#FEFEFE"></path>
                                <path d="M114.691131,48.9230743 C112.627474,48.9230743 110.947817,50.5982171 110.947817,52.6571981 C110.947817,54.716179 112.627474,56.3913219 114.691131,56.3913219 C116.75518,56.3913219 118.434446,54.716179 118.434446,52.6571981 C118.434446,50.5982171 116.75518,48.9230743 114.691131,48.9230743 M114.691131,57.5627505 C111.979645,57.5627505 109.773505,55.3620267 109.773505,52.6571981 C109.773505,49.9523695 111.979645,47.7516457 114.691131,47.7516457 C117.403009,47.7516457 119.608758,49.9523695 119.608758,52.6571981 C119.608758,55.3620267 117.403009,57.5627505 114.691131,57.5627505" id="Fill-25" fill="#FEFEFE"></path>
                                <polygon id="Fill-27" fill="#FEFEFE" points="28.691885 79.6860381 8.60841101 70.2572095 9.10866789 69.1970667 29.1917505 78.6258952"></polygon>
                                <polygon id="Fill-29" fill="#FEFEFE" points="37.261074 79.3876362 36.5408294 78.4622076 56.2027254 63.2387124 56.9225786 64.164141"></polygon>
                                <polygon id="Fill-31" fill="#FEFEFE" points="64.0397309 58.3095752 63.0266911 57.7172229 82.355474 24.800861 83.3685138 25.3928229"></polygon>
                                <polygon id="Fill-33" fill="#FEFEFE" points="110.731626 49.6622848 88.9313076 25.4886848 89.8042128 24.704999 111.604531 48.878599"></polygon>
                                <polygon id="Fill-35" fill="#B4D455" points="6.67240122 30.8296181 4.75122691 29.4820848 5.42606483 28.5238562 7.34763058 29.8713895"></polygon>
                                <path d="M13.6269113,35.7060019 L10.1497737,33.2678686 L10.8250031,32.30964 L14.3021407,34.7477733 L13.6269113,35.7060019 Z M20.581578,40.582659 L17.1044404,38.1445257 L17.7792783,37.1862971 L21.2564159,39.6244305 L20.581578,40.582659 Z M27.5358532,45.4593162 L24.0587156,43.0207924 L24.733945,42.0625638 L28.2110826,44.5006971 L27.5358532,45.4593162 Z" id="Fill-37" fill="#B4D455"></path>
                                <polygon id="Fill-39" fill="#B4D455" points="33.4499229 49.6062124 31.0132257 47.8974886 31.688455 46.93926 33.0944979 47.9248219 33.9811034 46.4566314 34.9874887 47.0610886"></polygon>
                                <path d="M54.9422581,14.0307467 L53.9362642,13.425899 L56.1533651,9.75581333 L57.159359,10.360661 L54.9422581,14.0307467 Z M50.5076648,21.3709181 L49.5016709,20.7660705 L51.7187719,17.0959848 L52.7247657,17.7008324 L50.5076648,21.3709181 Z M46.073463,28.7110895 L45.0670777,28.1062419 L47.28457,24.4361562 L48.2905639,25.0410038 L46.073463,28.7110895 Z M41.6388697,36.051261 L40.6324844,35.4464133 L42.8499768,31.7763276 L43.8563621,32.3811752 L41.6388697,36.051261 Z M37.2046679,43.3910419 L36.1982826,42.7865848 L38.4153835,39.116499 L39.4217688,39.7209562 L37.2046679,43.3910419 Z" id="Fill-41" fill="#B4D455"></path>
                                <polygon id="Fill-43" fill="#B4D455" points="60.5718312 6.74727238 60.026559 5.61372 59.3763817 6.69026286 58.3703878 6.08580571 60.1443817 3.14942476 61.6306691 6.24043429"></polygon>
                                <path d="M64.9353786,15.8237352 L62.753507,11.2852305 L63.812345,10.7791733 L65.9942165,15.3172876 L64.9353786,15.8237352 Z M69.2987303,24.9003543 L67.1168587,20.3618495 L68.1756966,19.8554019 L70.3579596,24.3939067 L69.2987303,24.9003543 Z M73.6624734,33.9765829 L71.4806018,29.438859 L72.5394398,28.932021 L74.7213113,33.4701352 L73.6624734,33.9765829 Z M78.0258251,43.0532019 L75.8439535,38.5150876 L76.9027914,38.00864 L79.084663,42.5471448 L78.0258251,43.0532019 Z M82.3895682,52.129821 L80.2076966,47.5913162 L81.2665346,47.085259 L83.4484061,51.6233733 L82.3895682,52.129821 Z" id="Fill-45" fill="#B4D455"></path>
                                <polygon id="Fill-47" fill="#B4D455" points="86.0634422 59.7721429 84.5708917 56.6682476 85.6301211 56.1618 86.1691303 57.2828571 86.8009101 56.211 87.813167 56.8053048"></polygon>
                                <path d="M109.904793,19.3427848 L108.892536,18.7488705 L111.347239,14.5863943 L112.359496,15.1803086 L109.904793,19.3427848 Z M104.995386,27.6677371 L103.983129,27.0738229 L106.437832,22.9113467 L107.450089,23.505261 L104.995386,27.6677371 Z M100.085979,35.9926895 L99.0737223,35.3987752 L101.528817,31.2359086 L102.541074,31.8302133 L100.085979,35.9926895 Z M95.1769639,44.3176419 L94.164707,43.7237276 L96.6194104,39.5612514 L97.6316673,40.1551657 L95.1769639,44.3176419 Z M90.2675572,52.6425943 L89.2553003,52.04868 L91.7100037,47.8862038 L92.7222606,48.4801181 L90.2675572,52.6425943 Z" id="Fill-49" fill="#B4D455"></path>
                                <polygon id="Fill-51" fill="#B4D455" points="114.813808 11.0177152 113.801551 10.423801 114.992695 8.4042581 116.004952 8.99856286"></polygon>
                            </g>
                        </g>
                    </g>
                </g>
            </g>
        </g>
    </g>
</svg>