<?xml version="1.0" encoding="UTF-8" standalone="no"?>
<svg width="139px" height="151px" viewBox="0 0 139 151" version="1.1" xmlns="http://www.w3.org/2000/svg" xmlns:xlink="http://www.w3.org/1999/xlink">
    <!-- Generator: Sketch 39.1 (31720) - http://www.bohemiancoding.com/sketch -->
    <title>Page 1</title>
    <desc>Created with Sketch.</desc>
    <defs>
        <polygon id="path-1" points="0 150.646157 138.645676 150.646157 138.645676 0.503333333 0 0.503333333"></polygon>
    </defs>
    <g id="landing-page" stroke="none" stroke-width="1" fill="none" fill-rule="evenodd">
        <g id="@1440px---12-Columns-/-20px-Gutters-/-5%-Margins-Copy-7" transform="translate(-214.000000, -958.000000)">
            <g id="Group-7" transform="translate(1.000000, 413.000000)">
                <g id="Group-6" transform="translate(0.000000, 166.000000)">
                    <g id="Group-2" transform="translate(72.000000, 379.000000)">
                        <g id="Page-1" transform="translate(141.000000, 0.000000)">
                            <g id="Group-3" transform="translate(35.381818, 0.149490)" fill="#71BDDD">
                                <path d="M15.9207567,39.295183 C15.884364,39.2956863 15.8489822,39.3007197 15.8125895,39.3007197 C7.17942582,39.3007197 0.181407636,32.3315663 0.181407636,23.7351363 C0.181407636,15.138203 7.17942582,8.16904967 15.8125895,8.16904967 C17.9132585,8.16904967 19.9133422,8.58832633 21.7430876,9.33627967 C24.235484,4.03466967 29.6256513,0.353793 35.8922767,0.353793 C44.2484513,0.353793 51.0528804,6.887563 51.4825167,15.101963 C57.8097967,15.5328163 62.8122804,20.7669797 62.8122804,27.177433 C62.8122804,33.869753 57.3639858,39.295183 50.6434622,39.295183 C50.5524804,39.295183 50.4640258,39.2836063 50.373044,39.281593 L50.373044,39.295183 L16.601604,39.295183 L15.9207567,39.295183 Z" id="Fill-1"></path>
                            </g>
                            <mask id="mask-2" fill="white">
                                <use xlink:href="#path-1"></use>
                            </mask>
                            <g id="Clip-5"></g>
                            <polygon id="Fill-4" fill="#71BDDD" mask="url(#mask-2)" points="24.5241491 141.93245 46.6104909 141.93245 46.6104909 85.3275833 24.5241491 85.3275833"></polygon>
                            <path d="M25.2823309,141.17745 L45.8523091,141.17745 L45.8523091,86.0825833 L25.2823309,86.0825833 L25.2823309,141.17745 Z M46.6099855,142.68745 L24.5241491,142.68745 C24.1051273,142.68745 23.7659673,142.349713 23.7659673,141.93245 L23.7659673,85.3280867 C23.7659673,84.9108233 24.1051273,84.5730867 24.5241491,84.5730867 L46.6099855,84.5730867 C47.0290073,84.5730867 47.3681673,84.9108233 47.3681673,85.3280867 L47.3681673,141.93245 C47.3681673,142.349713 47.0290073,142.68745 46.6099855,142.68745 L46.6099855,142.68745 Z" id="Fill-6" fill="#0B94A7" mask="url(#mask-2)"></path>
                            <path d="M31.3277189,105.396238 L46.1061989,105.396238" id="Fill-7" fill="#FEFEFE" mask="url(#mask-2)"></path>
                            <path d="M46.1062495,106.151289 L31.3277695,106.151289 C30.9087476,106.151289 30.5695876,105.813049 30.5695876,105.396289 C30.5695876,104.979529 30.9087476,104.641289 31.3277695,104.641289 L46.1062495,104.641289 C46.5252713,104.641289 46.8644313,104.979529 46.8644313,105.396289 C46.8644313,105.813049 46.5252713,106.151289 46.1062495,106.151289" id="Fill-8" fill="#0B94A7" mask="url(#mask-2)"></path>
                            <path d="M31.3277189,98.706737 L46.1061989,98.706737" id="Fill-9" fill="#FEFEFE" mask="url(#mask-2)"></path>
                            <path d="M46.1062495,99.4619887 L31.3277695,99.4619887 C30.9087476,99.4619887 30.5695876,99.1237487 30.5695876,98.7069887 C30.5695876,98.2902287 30.9087476,97.9519887 31.3277695,97.9519887 L46.1062495,97.9519887 C46.5252713,97.9519887 46.8644313,98.2902287 46.8644313,98.7069887 C46.8644313,99.1237487 46.5252713,99.4619887 46.1062495,99.4619887" id="Fill-10" fill="#0B94A7" mask="url(#mask-2)"></path>
                            <path d="M31.3277189,92.0172357 L46.1061989,92.0172357" id="Fill-11" fill="#FEFEFE" mask="url(#mask-2)"></path>
                            <path d="M46.1062495,92.7721853 L31.3277695,92.7721853 C30.9087476,92.7721853 30.5695876,92.4339453 30.5695876,92.0171853 C30.5695876,91.6004253 30.9087476,91.2621853 31.3277695,91.2621853 L46.1062495,91.2621853 C46.5252713,91.2621853 46.8644313,91.6004253 46.8644313,92.0171853 C46.8644313,92.4339453 46.5252713,92.7721853 46.1062495,92.7721853" id="Fill-12" fill="#0B94A7" mask="url(#mask-2)"></path>
                            <polygon id="Fill-13" fill="#71BDDD" mask="url(#mask-2)" points="89.0686727 141.93245 111.155015 141.93245 111.155015 85.3275833 89.0686727 85.3275833"></polygon>
                            <path d="M89.8263491,141.17745 L110.396327,141.17745 L110.396327,86.0825833 L89.8263491,86.0825833 L89.8263491,141.17745 Z M111.155015,142.68745 L89.0681673,142.68745 C88.6496509,142.68745 88.3099855,142.349713 88.3099855,141.93245 L88.3099855,85.3280867 C88.3099855,84.9108233 88.6496509,84.5730867 89.0681673,84.5730867 L111.155015,84.5730867 C111.573531,84.5730867 111.913196,84.9108233 111.913196,85.3280867 L111.913196,141.93245 C111.913196,142.349713 111.573531,142.68745 111.155015,142.68745 L111.155015,142.68745 Z" id="Fill-14" fill="#0B94A7" mask="url(#mask-2)"></path>
                            <path d="M104.351091,105.396238 L89.5726109,105.396238" id="Fill-15" fill="#FEFEFE" mask="url(#mask-2)"></path>
                            <path d="M104.35099,106.151289 L89.5730153,106.151289 C89.1544989,106.151289 88.8148335,105.813049 88.8148335,105.396289 C88.8148335,104.979529 89.1544989,104.641289 89.5730153,104.641289 L104.35099,104.641289 C104.769506,104.641289 105.109172,104.979529 105.109172,105.396289 C105.109172,105.813049 104.769506,106.151289 104.35099,106.151289" id="Fill-16" fill="#0B94A7" mask="url(#mask-2)"></path>
                            <path d="M104.351091,98.706737 L89.5726109,98.706737" id="Fill-17" fill="#FEFEFE" mask="url(#mask-2)"></path>
                            <path d="M104.35099,99.4619887 L89.5730153,99.4619887 C89.1544989,99.4619887 88.8148335,99.1237487 88.8148335,98.7069887 C88.8148335,98.2902287 89.1544989,97.9519887 89.5730153,97.9519887 L104.35099,97.9519887 C104.769506,97.9519887 105.109172,98.2902287 105.109172,98.7069887 C105.109172,99.1237487 104.769506,99.4619887 104.35099,99.4619887" id="Fill-18" fill="#0B94A7" mask="url(#mask-2)"></path>
                            <path d="M104.351091,92.0172357 L89.5726109,92.0172357" id="Fill-19" fill="#FEFEFE" mask="url(#mask-2)"></path>
                            <path d="M104.35099,92.7721853 L89.5730153,92.7721853 C89.1544989,92.7721853 88.8148335,92.4339453 88.8148335,92.0171853 C88.8148335,91.6004253 89.1544989,91.2621853 89.5730153,91.2621853 L104.35099,91.2621853 C104.769506,91.2621853 105.109172,91.6004253 105.109172,92.0171853 C105.109172,92.4339453 104.769506,92.7721853 104.35099,92.7721853" id="Fill-20" fill="#0B94A7" mask="url(#mask-2)"></path>
                            <path d="M15.9638215,115.256538 L12.021276,115.256538 C11.6022542,115.256538 11.2630942,114.918298 11.2630942,114.501538 C11.2630942,114.084778 11.6022542,113.746538 12.021276,113.746538 L15.9638215,113.746538 C16.3828433,113.746538 16.7220033,114.084778 16.7220033,114.501538 C16.7220033,114.918298 16.3828433,115.256538 15.9638215,115.256538" id="Fill-21" fill="#FEFEFE" mask="url(#mask-2)"></path>
                            <path d="M16.7720938,109.146223 C16.7073956,109.146223 16.6411811,109.137666 16.575472,109.120553 L12.766872,108.104826 C12.3625084,107.996609 12.1224175,107.582869 12.2310902,107.180203 C12.3392575,106.777033 12.755752,106.540466 13.1596102,106.645663 L16.9677047,107.661893 C17.3720684,107.770109 17.6121593,108.183849 17.503992,108.586516 C17.4135156,108.924253 17.1067047,109.146223 16.7720938,109.146223" id="Fill-22" fill="#FEFEFE" mask="url(#mask-2)"></path>
                            <path d="M12.9626851,122.383285 C12.6280742,122.383285 12.3217687,122.161315 12.2307869,121.824082 C12.1221142,121.420912 12.3627105,121.007172 12.7670742,120.898955 L16.5751687,119.882222 C16.9795324,119.777025 17.3955215,120.013592 17.5036887,120.416259 C17.6123615,120.819429 17.3722705,121.233169 16.9679069,121.341385 L13.1593069,122.357615 C13.0935978,122.374729 13.0273833,122.383285 12.9626851,122.383285" id="Fill-23" fill="#FEFEFE" mask="url(#mask-2)"></path>
                            <path d="M123.613559,115.256538 L119.671014,115.256538 C119.252497,115.256538 118.912832,114.918298 118.912832,114.501538 C118.912832,114.084778 119.252497,113.746538 119.671014,113.746538 L123.613559,113.746538 C124.032076,113.746538 124.371741,114.084778 124.371741,114.501538 C124.371741,114.918298 124.032076,115.256538 123.613559,115.256538" id="Fill-24" fill="#FEFEFE" mask="url(#mask-2)"></path>
                            <path d="M118.862539,109.146223 C118.527928,109.146223 118.221117,108.924253 118.130641,108.586516 C118.022474,108.183849 118.262565,107.770109 118.666928,107.661893 L122.475528,106.645663 C122.878376,106.540466 123.295881,106.776529 123.404048,107.180203 C123.512216,107.582869 123.27263,107.996609 122.867761,108.104826 L119.059161,109.120553 C118.993452,109.137666 118.927743,109.146223 118.862539,109.146223" id="Fill-25" fill="#FEFEFE" mask="url(#mask-2)"></path>
                            <path d="M122.672251,122.383285 C122.607048,122.383285 122.541339,122.374729 122.475124,122.357615 L118.666524,121.341385 C118.26216,121.233169 118.022575,120.819429 118.130742,120.416259 C118.238909,120.013592 118.653888,119.777529 119.059768,119.882222 L122.868368,120.898955 C123.272226,121.007172 123.512317,121.420912 123.404149,121.824082 C123.313673,122.161315 123.006862,122.383285 122.672251,122.383285" id="Fill-26" fill="#FEFEFE" mask="url(#mask-2)"></path>
                            <path d="M66.8774996,52.446528 C66.4584778,52.446528 66.1193178,52.108288 66.1193178,51.691528 L66.1193178,20.5392213 C66.1193178,20.1224613 66.4584778,19.7842213 66.8774996,19.7842213 C67.2965215,19.7842213 67.6356815,20.1224613 67.6356815,20.5392213 L67.6356815,51.691528 C67.6356815,52.108288 67.2965215,52.446528 66.8774996,52.446528" id="Fill-27" fill="#FEFEFE" mask="url(#mask-2)"></path>
                            <path d="M79.0061847,31.753337 C78.8302865,31.753337 78.6538829,31.692937 78.5108393,31.569117 L66.8772975,21.538187 L55.2462829,31.569117 C54.9303738,31.842427 54.4506975,31.807697 54.1767411,31.4926103 C53.9022793,31.1770203 53.9366502,30.7003637 54.2535702,30.427557 L66.3809411,19.9687937 C66.6660175,19.723167 67.0890829,19.723167 67.3736538,19.9687937 L79.5025411,30.427557 C79.8194611,30.7003637 79.853832,31.1770203 79.5798756,31.492107 C79.4297556,31.6647503 79.2189811,31.753337 79.0061847,31.753337" id="Fill-28" fill="#FEFEFE" mask="url(#mask-2)"></path>
                            <path d="M6.38929927,78.897047 C5.97027745,78.897047 5.63111745,78.558807 5.63111745,78.142047 L5.63111745,63.677757 C5.63111745,63.260997 5.97027745,62.922757 6.38929927,62.922757 C6.80832109,62.922757 7.14748109,63.260997 7.14748109,63.677757 L7.14748109,78.142047 C7.14748109,78.558807 6.80832109,78.897047 6.38929927,78.897047" id="Fill-29" fill="#FEFEFE" mask="url(#mask-2)"></path>
                            <path d="M0.758485091,69.2890177 C0.546194182,69.2890177 0.334914182,69.200431 0.185299636,69.028291 C-0.0891621818,68.712701 -0.0547912727,68.2360443 0.262128727,67.9632377 L5.89289236,63.1070777 C6.17796873,62.8609477 6.60103418,62.8609477 6.88560509,63.1070777 L12.5173796,67.9632377 C12.8342996,68.2360443 12.8681651,68.712701 12.5942087,69.0277877 C12.3202524,69.3428743 11.8410815,69.3781077 11.5246669,69.1047977 L6.38924873,64.676471 L1.254336,69.1047977 C1.11129236,69.2286177 0.934383273,69.2890177 0.758485091,69.2890177" id="Fill-30" fill="#FEFEFE" mask="url(#mask-2)"></path>
                            <path d="M129.764891,99.4619887 C129.346374,99.4619887 129.006709,99.1237487 129.006709,98.7069887 L129.006709,77.843822 C129.006709,77.427062 129.346374,77.088822 129.764891,77.088822 C130.183407,77.088822 130.523072,77.427062 130.523072,77.843822 L130.523072,98.7069887 C130.523072,99.1237487 130.183407,99.4619887 129.764891,99.4619887" id="Fill-31" fill="#FEFEFE" mask="url(#mask-2)"></path>
                            <path d="M121.643045,85.603108 C121.430248,85.603108 121.219474,85.5145213 121.069354,85.3423813 C120.795397,85.0267913 120.829768,84.5501347 121.146183,84.277328 L129.268332,77.272438 C129.553408,77.0268113 129.975968,77.0268113 130.26155,77.272438 L138.384205,84.277328 C138.700619,84.5501347 138.734485,85.0267913 138.460528,85.3423813 C138.186572,85.655958 137.708412,85.692198 137.390987,85.418888 L129.764688,78.8418313 L122.138896,85.418888 C121.995347,85.542708 121.818943,85.603108 121.643045,85.603108" id="Fill-32" fill="#FEFEFE" mask="url(#mask-2)"></path>
                            <polygon id="Fill-33" fill="#FBD501" mask="url(#mask-2)" points="99.9718327 72.9365233 102.926215 72.9365233 102.926215 69.99454 99.9718327 69.99454"></polygon>
                            <polygon id="Fill-34" fill="#FBD501" mask="url(#mask-2)" points="111.648844 72.9365233 114.603225 72.9365233 114.603225 69.99454 111.648844 69.99454"></polygon>
                            <polygon id="Fill-35" fill="#FBD501" mask="url(#mask-2)" points="99.9718327 67.0943333 102.926215 67.0943333 102.926215 64.15235 99.9718327 64.15235"></polygon>
                            <polygon id="Fill-36" fill="#FBD501" mask="url(#mask-2)" points="117.487349 67.0943333 120.441731 67.0943333 120.441731 64.15235 117.487349 64.15235"></polygon>
                            <polygon id="Fill-37" fill="#FBD501" mask="url(#mask-2)" points="94.1338327 61.28033 97.0882145 61.28033 97.0882145 58.3383467 94.1338327 58.3383467"></polygon>
                            <polygon id="Fill-38" fill="#FBD501" mask="url(#mask-2)" points="111.648844 55.4663267 114.603225 55.4663267 114.603225 52.5243433 111.648844 52.5243433"></polygon>
                            <polygon id="Fill-39" fill="#FBD501" mask="url(#mask-2)" points="105.810338 55.4663267 108.76472 55.4663267 108.76472 52.5243433 105.810338 52.5243433"></polygon>
                            <polygon id="Fill-40" fill="#FBD501" mask="url(#mask-2)" points="111.648844 49.6523233 114.603225 49.6523233 114.603225 46.71034 111.648844 46.71034"></polygon>
                            <polygon id="Fill-41" fill="#FBD501" mask="url(#mask-2)" points="99.9718327 49.6523233 102.926215 49.6523233 102.926215 46.71034 99.9718327 46.71034"></polygon>
                            <polygon id="Fill-42" fill="#FBD501" mask="url(#mask-2)" points="35.9266982 48.1936633 38.88108 48.1936633 38.88108 45.25168 35.9266982 45.25168"></polygon>
                            <polygon id="Fill-43" fill="#FBD501" mask="url(#mask-2)" points="24.2496873 48.1936633 27.2040691 48.1936633 27.2040691 45.25168 24.2496873 45.25168"></polygon>
                            <polygon id="Fill-44" fill="#FBD501" mask="url(#mask-2)" points="35.9266982 54.0358533 38.88108 54.0358533 38.88108 51.09387 35.9266982 51.09387"></polygon>
                            <polygon id="Fill-45" fill="#FBD501" mask="url(#mask-2)" points="18.4111818 54.0358533 21.3655636 54.0358533 21.3655636 51.09387 18.4111818 51.09387"></polygon>
                            <polygon id="Fill-46" fill="#FBD501" mask="url(#mask-2)" points="41.7646982 59.8498567 44.71908 59.8498567 44.71908 56.9078733 41.7646982 56.9078733"></polygon>
                            <polygon id="Fill-47" fill="#FBD501" mask="url(#mask-2)" points="24.2496873 65.66386 27.2040691 65.66386 27.2040691 62.7218767 24.2496873 62.7218767"></polygon>
                            <polygon id="Fill-48" fill="#FBD501" mask="url(#mask-2)" points="30.0881927 65.66386 33.0425745 65.66386 33.0425745 62.7218767 30.0881927 62.7218767"></polygon>
                            <polygon id="Fill-49" fill="#FBD501" mask="url(#mask-2)" points="24.2496873 71.4778633 27.2040691 71.4778633 27.2040691 68.53588 24.2496873 68.53588"></polygon>
                            <polygon id="Fill-50" fill="#FBD501" mask="url(#mask-2)" points="35.9266982 71.4778633 38.88108 71.4778633 38.88108 68.53588 35.9266982 68.53588"></polygon>
                            <polygon id="Fill-51" fill="#FEFEFE" mask="url(#mask-2)" points="46.7282618 149.891157 89.5726109 149.891157 89.5726109 65.3447467 46.7282618 65.3447467"></polygon>
                            <path d="M47.4864436,149.136157 L88.8144291,149.136157 L88.8144291,66.0992433 L47.4864436,66.0992433 L47.4864436,149.136157 Z M89.5726109,150.646157 L46.7282618,150.646157 C46.3097455,150.646157 45.97008,150.307917 45.97008,149.891157 L45.97008,65.3442433 C45.97008,64.9274833 46.3097455,64.5892433 46.7282618,64.5892433 L89.5726109,64.5892433 C89.9916327,64.5892433 90.3307927,64.9274833 90.3307927,65.3442433 L90.3307927,149.891157 C90.3307927,150.307917 89.9916327,150.646157 89.5726109,150.646157 L89.5726109,150.646157 Z" id="Fill-52" fill="#0B94A7" mask="url(#mask-2)"></path>
                            <polygon id="Fill-53" fill="#B4D455" mask="url(#mask-2)" points="46.7282618 149.891157 88.9979091 149.891157 88.9979091 65.3447467 46.7282618 65.3447467"></polygon>
                            <path d="M47.4864436,149.136157 L88.2392218,149.136157 L88.2392218,66.0992433 L47.4864436,66.0992433 L47.4864436,149.136157 Z M88.9979091,150.646157 L46.7282618,150.646157 C46.3097455,150.646157 45.97008,150.307917 45.97008,149.891157 L45.97008,65.3442433 C45.97008,64.9274833 46.3097455,64.5892433 46.7282618,64.5892433 L88.9979091,64.5892433 C89.4164255,64.5892433 89.7560909,64.9274833 89.7560909,65.3442433 L89.7560909,149.891157 C89.7560909,150.307917 89.4164255,150.646157 88.9979091,150.646157 L88.9979091,150.646157 Z" id="Fill-54" fill="#0B94A7" mask="url(#mask-2)"></path>
                            <path d="M56.8907793,95.319354 L78.9644847,95.319354" id="Fill-55" fill="#FEFEFE" mask="url(#mask-2)"></path>
                            <path d="M78.964232,96.0743037 L56.891032,96.0743037 C56.4720102,96.0743037 56.1328502,95.7360637 56.1328502,95.3193037 C56.1328502,94.9025437 56.4720102,94.5643037 56.891032,94.5643037 L78.964232,94.5643037 C79.3827484,94.5643037 79.7224138,94.9025437 79.7224138,95.3193037 C79.7224138,95.7360637 79.3827484,96.0743037 78.964232,96.0743037" id="Fill-56" fill="#0B94A7" mask="url(#mask-2)"></path>
                            <path d="M56.8907793,85.3277847 L78.9644847,85.3277847" id="Fill-57" fill="#FEFEFE" mask="url(#mask-2)"></path>
                            <path d="M78.964232,86.082835 L56.891032,86.082835 C56.4720102,86.082835 56.1328502,85.744595 56.1328502,85.327835 C56.1328502,84.911075 56.4720102,84.572835 56.891032,84.572835 L78.964232,84.572835 C79.3827484,84.572835 79.7224138,84.911075 79.7224138,85.327835 C79.7224138,85.744595 79.3827484,86.082835 78.964232,86.082835" id="Fill-58" fill="#0B94A7" mask="url(#mask-2)"></path>
                            <path d="M56.8907793,75.336165 L78.9644847,75.336165" id="Fill-59" fill="#FEFEFE" mask="url(#mask-2)"></path>
                            <path d="M78.964232,76.0913663 L56.891032,76.0913663 C56.4720102,76.0913663 56.1328502,75.7531263 56.1328502,75.3363663 C56.1328502,74.9196063 56.4720102,74.5813663 56.891032,74.5813663 L78.964232,74.5813663 C79.3827484,74.5813663 79.7224138,74.9196063 79.7224138,75.3363663 C79.7224138,75.7531263 79.3827484,76.0913663 78.964232,76.0913663" id="Fill-60" fill="#0B94A7" mask="url(#mask-2)"></path>
                        </g>
                    </g>
                </g>
            </g>
        </g>
    </g>
</svg>